<svg id="Layer_1" data-name="Layer 1" xmlns="http://www.w3.org/2000/svg" viewBox="0 0 451.07 105.26"><defs><style>.cls-1{fill:#231f20}.cls-2{fill:#ec008c}</style></defs><path class="cls-1" d="M31.64 53.07a4.89 4.89 0 0 1 9.78 0v46.78a4.89 4.89 0 0 1-9.78 0zM54.19 66.68A4.75 4.75 0 0 1 59 61.82a4.83 4.83 0 0 1 4.85 4.86v2.06c2.71-3.89 6.6-7.31 13.13-7.31 9.46 0 15 6.36 15 16.07v22.43a4.69 4.69 0 0 1-4.77 4.77 4.76 4.76 0 0 1-4.85-4.77V80.44c0-6.53-3.27-10.26-9-10.26s-9.47 3.89-9.47 10.42v19.33a4.81 4.81 0 0 1-9.62 0zM104.51 92.69V70.57h-1.6a4.14 4.14 0 0 1 0-8.27h1.6v-7.16a4.81 4.81 0 0 1 9.62 0v7.16h7.56a4.14 4.14 0 1 1 0 8.27h-7.56v20.61c0 3.74 1.91 5.25 5.17 5.25a22.59 22.59 0 0 0 2.39-.24 4.06 4.06 0 0 1 4.06 4 4.16 4.16 0 0 1-2.55 3.74 19.31 19.31 0 0 1-6.6 1.11c-7.08-.04-12.09-3.12-12.09-12.35zM151.28 105.26c-12.18 0-21.56-8.83-21.56-21.8v-.16c0-12 8.51-21.87 20.52-21.87 13.37 0 20 11 20 20.68a4.5 4.5 0 0 1-4.54 4.61h-26.36c1 6.85 5.89 10.66 12.09 10.66a15.1 15.1 0 0 0 9.95-3.66 3.59 3.59 0 0 1 2.46-.87 3.79 3.79 0 0 1 3.82 3.89 4.19 4.19 0 0 1-1.27 3 21.57 21.57 0 0 1-15.11 5.52zm9.54-24.9c-.63-6.21-4.29-11.06-10.66-11.06-5.88 0-10 4.54-10.9 11.06zM180.08 66.68a4.76 4.76 0 0 1 4.77-4.86 4.83 4.83 0 0 1 4.86 4.86V71c2.22-5.25 6.36-9.23 10.58-9.23a4.47 4.47 0 0 1 4.77 4.78 4.52 4.52 0 0 1-3.82 4.61c-6.84 1.19-11.53 6.44-11.53 16.39v12.38a4.81 4.81 0 0 1-4.86 4.77 4.74 4.74 0 0 1-4.77-4.77zM212.94 66.68a4.76 4.76 0 0 1 4.77-4.86 4.82 4.82 0 0 1 4.85 4.86v2.06c2.71-3.89 6.61-7.31 13.13-7.31 9.47 0 15 6.36 15 16.07v22.43a4.69 4.69 0 0 1-4.78 4.77 4.76 4.76 0 0 1-4.91-4.77V80.44c0-6.53-3.26-10.26-9-10.26-5.57 0-9.47 3.89-9.47 10.42v19.33a4.81 4.81 0 0 1-9.62 0zM280.52 105.26c-12.17 0-21.55-8.83-21.55-21.8v-.16c0-12 8.51-21.87 20.52-21.87 13.36 0 20 11 20 20.68a4.49 4.49 0 0 1-4.53 4.61h-26.37c1 6.85 5.89 10.66 12.09 10.66a15.1 15.1 0 0 0 9.95-3.66 3.59 3.59 0 0 1 2.46-.87 3.79 3.79 0 0 1 3.82 3.89 4.24 4.24 0 0 1-1.27 3 21.57 21.57 0 0 1-15.12 5.52zm9.55-24.9c-.64-6.21-4.3-11.06-10.66-11.06-5.89 0-10 4.54-10.9 11.06zM311.32 92.69V70.57h-1.6a4.14 4.14 0 0 1 0-8.27h1.6v-7.16a4.81 4.81 0 0 1 9.62 0v7.16h7.56a4.14 4.14 0 1 1 0 8.27h-7.56v20.61c0 3.74 1.91 5.25 5.17 5.25a22.59 22.59 0 0 0 2.39-.24 4.06 4.06 0 0 1 4.06 4 4.16 4.16 0 0 1-2.55 3.74 19.31 19.31 0 0 1-6.6 1.11c-7.08-.04-12.09-3.12-12.09-12.35zM345.14 53.23a4.91 4.91 0 0 1 4.94-4.93h1c2.38 0 3.74 1.19 5.09 2.86L384 87.2V53a4.82 4.82 0 0 1 9.63 0v46.77a4.76 4.76 0 0 1-4.77 4.85h-.4c-2.31 0-3.74-1.19-5.09-2.94l-28.6-37.07v35.32a4.82 4.82 0 0 1-9.63 0zM404.69 100v-.24a6.77 6.77 0 0 1 1.83-4.54l31.34-37.94h-27.92a4.33 4.33 0 0 1-4.29-4.3 4.4 4.4 0 0 1 4.29-4.37h36.6a4.4 4.4 0 0 1 4.37 4.29v.24a7.18 7.18 0 0 1-1.75 4.54l-31.42 37.95h29a4.42 4.42 0 0 1 4.37 4.38 4.35 4.35 0 0 1-4.37 4.29h-37.67a4.45 4.45 0 0 1-4.38-4.3z"/><path class="cls-2" d="M67.55 22.82a5.48 5.48 0 0 1-3.67-1.4A43.26 43.26 0 0 0 36.53 11 43.29 43.29 0 0 0 9.17 21.42a5.5 5.5 0 0 1-7.34-8.19A54.07 54.07 0 0 1 36.53 0a54.07 54.07 0 0 1 34.7 13.23 5.5 5.5 0 0 1-3.68 9.59z"/><path class="cls-2" d="M57.72 40.51A5.5 5.5 0 0 1 53.88 39a26.3 26.3 0 0 0-17.35-7.21A26.31 26.31 0 0 0 19.17 39a5.5 5.5 0 0 1-7.68-7.88c5.13-5 14.39-10.33 25-10.33s19.91 5.34 25 10.33a5.5 5.5 0 0 1-3.84 9.44z"/></svg>